<svg xmlns="http://www.w3.org/2000/svg" viewBox="0 0 1000 1000"><path d="M311.23 144.26c-.8 2.13-1.06 28.17-.8 57.93l.8 54.48h31.88V142.4l-15.41-.8c-10.89-.53-15.67.27-16.47 2.66zM101.3 236.74l-10.36 10.63 39.59 39.86c21.79 22.06 41.19 39.86 42.52 39.86 3.45 0 22.59-19.13 22.59-22.59 0-4.25-75.47-78.39-79.72-78.39-2.39 0-9.04 4.78-14.62 10.63zM499.11 264.11c-20.73 20.73-37.73 39.06-37.73 40.66 0 3.45 19.13 22.32 22.85 22.32 4.25 0 78.13-75.47 78.13-79.99 0-5.05-16.21-20.99-21.53-20.99-2.13 0-20.73 17-41.72 38zM306.72 287.76c-70.95 6.64-134.73 65.64-149.34 138.18-5.31 25.78-5.31 42.25 0 68.03 6.91 35.08 21.79 62.18 48.36 89.02 14.08 14.35 15.41 15.15 18.6 10.63 1.86-2.66 7.44-10.36 12.22-17.01l9.03-12.49-12.75-12.49c-39.33-38.8-48.63-104.43-21.79-153.86 41.72-77.06 144.29-93.54 208.6-32.95l13.55 12.49 13.29-12.49c7.44-6.91 13.82-13.82 14.35-15.41 1.59-5.58-32.42-32.95-53.94-43.58-33.75-16.74-61.65-21.79-100.18-18.07zM541.63 348.34c-30.83 8.24-54.74 22.06-78.92 46.5-32.69 32.43-51.83 75.48-51.83 116.13v15.41h-17.8c-56.87.26-112.4 33.22-140.31 83.71-47.83 86.36-13.55 192.39 75.47 233.05 33.48 15.41 32.69 15.41 268.13 15.41 187.08 0 218.7-.53 236.5-4.25 39.6-8.24 70.16-24.98 100.45-55.54 60.32-60.59 73.88-153.33 34.02-229.86-23.92-45.7-65.64-79.72-117.99-96.19-17.01-5.31-25.51-6.11-57.93-6.11h-37.73l-4.25-12.75c-6.11-18.6-27.9-49.96-46.51-66.7-42.26-38.27-105.5-53.42-161.3-38.81zm69.35 46.51c35.08 7.44 68.83 31.89 85.04 61.65 3.99 7.71 11.16 26.04 15.41 41.19 4.52 15.15 8.5 27.64 8.77 28.17.53.27 12.49-1.86 27.11-5.05 64.04-13.55 111.08-1.86 150.14 37.2 46.24 46.24 56.34 115.86 25.51 174.06-17.8 34.02-59.26 65.64-95.66 73.08-9.57 2.13-82.91 2.92-237.3 2.39l-223.21-.8-19.93-9.83c-24.71-12.22-44.64-32.42-56.07-56.87-11.43-24.45-13.29-58.2-5.05-82.91 14.35-42.25 45.44-70.15 87.69-79.19 14.88-2.92 24.71-3.19 48.63-1.06 16.47 1.33 32.15 2.66 34.81 2.66 4.25 0 4.52-3.46 4.25-40.66-.27-24.72.8-44.91 2.92-52.35 12.49-46.24 49.96-81.58 96.73-91.68 21.25-4.79 28.42-4.79 50.21 0zM12.82 443.74c-2.39 1.33-3.19 6.91-2.66 17.8l.8 15.68 54.21.8c37.73.53 55.27-.27 57.67-2.39 2.13-1.86 3.72-8.24 3.72-15.94 0-10.1-1.06-13.55-5.05-15.68-6.12-3.19-103.65-3.72-108.69-.27zM130.8 632.41l-39.59 39.86 7.17 9.3c13.82 18.34 16.48 17.27 56.6-22.59 19.66-19.66 36.94-37.73 38.27-40.13 1.86-3.72.27-6.91-7.18-15.41-5.31-5.85-10.9-10.63-12.75-10.63-1.6.01-20.73 17.81-42.52 39.6z"/></svg>