<svg width="292" height="173" fill="none" xmlns="http://www.w3.org/2000/svg"><mask id="prefix__a" fill="#fff"><path fill-rule="evenodd" clip-rule="evenodd" d="M163.919 150.48a77.051 77.051 0 01-23.79 3.74c-10.527 0-20.561-2.109-29.702-5.928-11.223 14.78-28.984 24.325-48.974 24.325C27.513 172.617 0 145.103 0 111.164c0-33.94 27.514-61.453 61.453-61.453 2.178 0 4.33.113 6.45.334C78.862 20.809 107.065 0 140.128 0c32.791 0 60.801 20.468 71.952 49.325.218-.004.437-.006.656-.006 9.586 0 18.312 3.686 24.837 9.717a36.428 36.428 0 0117.828-4.629c20.213 0 36.598 16.386 36.598 36.598 0 20.213-16.385 36.598-36.598 36.598h-.059c-2.55 25.281-23.894 45.014-49.847 45.014-17.314 0-32.578-8.783-41.577-22.137z"/></mask><path d="M163.919 150.48l2.597-1.75-1.319-1.956-2.243.727.965 2.979zm-53.492-2.188l1.207-2.89-2.236-.934-1.465 1.93 2.494 1.894zM67.902 50.045l-.325 3.114 2.408.251.85-2.266-2.933-1.1zm144.179-.72l-2.921 1.128.789 2.041 2.187-.038-.055-3.131zm25.493 9.711l-2.126 2.3 1.669 1.543 1.984-1.11-1.527-2.733zm17.828 68.567l-.002 3.132h.002v-3.132zm-.059 0l.002-3.131-2.834-.002-.284 2.819 3.116.314zm-92.389 19.898a73.924 73.924 0 01-22.825 3.587v6.263a80.173 80.173 0 0024.755-3.892l-1.93-5.958zm-22.825 3.587c-10.105 0-19.729-2.024-28.495-5.686l-2.414 5.779c9.517 3.976 19.96 6.17 30.909 6.17v-6.263zm-78.676 24.66c21.01 0 39.678-10.036 51.468-25.563l-4.988-3.787c-10.657 14.034-27.51 23.087-46.48 23.087v6.263zM-3.13 111.164c0 35.669 28.915 64.584 64.584 64.584v-6.263c-32.21 0-58.322-26.111-58.322-58.321H-3.13zm64.584-64.585c-35.669 0-64.584 28.916-64.584 64.585H3.13c0-32.21 26.112-58.322 58.322-58.322v-6.263zm6.774.351a65.315 65.315 0 00-6.774-.35v6.262c2.07 0 4.113.108 6.124.317l.65-6.229zm2.607 4.214C81.352 23.091 108.413 3.131 140.13 3.131V-3.13c-34.411 0-63.755 21.658-75.159 52.077l5.864 2.198zM140.13 3.131c31.454 0 58.331 19.632 69.031 47.322l5.842-2.257C203.4 18.173 174.256-3.13 140.129-3.13V3.13zm72.608 43.057c-.237 0-.475.002-.711.006l.11 6.262c.2-.004.4-.006.601-.006v-6.262zm26.962 10.549c-7.08-6.546-16.557-10.55-26.962-10.55v6.263a33.336 33.336 0 0122.711 8.886l4.251-4.6zm15.703-5.46a39.563 39.563 0 00-19.356 5.026l3.055 5.467a33.303 33.303 0 0116.301-4.231v-6.263zm39.729 39.728c0-21.941-17.787-39.729-39.729-39.729v6.263c18.483 0 33.467 14.983 33.467 33.466h6.262zm-39.729 39.73c21.942 0 39.729-17.788 39.729-39.73h-6.262c0 18.483-14.984 33.467-33.467 33.467v6.263zm-.062 0h.06l.005-6.263h-.06l-.005 6.263zm-49.844 45.013c27.577 0 50.253-20.967 52.962-47.831l-6.231-.628c-2.39 23.697-22.402 42.196-46.731 42.196v6.263zm-44.174-23.518c9.557 14.18 25.774 23.518 44.174 23.518v-6.263c-16.229 0-30.538-8.228-38.98-20.755l-5.194 3.5z" fill="#B4BBBB" mask="url(#prefix__a)"/><circle cx="119.5" cy="63.5" r="7.5" fill="#B4BBBB"/><circle cx="166.5" cy="64.5" r="7.5" fill="#B4BBBB"/><path d="M134 81.179c6.067-1.37 11.351-1.762 18.201 0" stroke="#B4BBBB" stroke-width="1.174"/></svg>